<svg version="1.2" xmlns="http://www.w3.org/2000/svg" viewBox="0 0 524 527" width="524" height="527">
	<title>up</title>
	<style>
		.s0 { opacity: .5;fill: #ff0000 } 
		.s1 { opacity: .6;fill: #ff0000 } 
		.s2 { opacity: 1;fill: #ff0000 } 
		.s3 { opacity: .7;fill: #ff0000 } 
		.s4 { opacity: .3;fill: #ff0000 } 
		.s5 { opacity: .4;fill: #ff0000 } 
	</style>
	<g id="Background">
		<path id="Path 34" class="s0" d="m236.8 116c0.9 0 2.3 0.5 3 1.2 0.7 0.7 1.2 2.1 1.2 3 0 1-0.8 1.8-1.8 1.8-0.9 0-2.3-0.5-3-1.2-0.7-0.7-1.2-2.1-1.2-3 0-1 0.8-1.8 1.7-1.8zm-48 48c1 0 2.4 0.5 3.1 1.2 0.7 0.7 1.2 2.1 1.2 3 0 1-0.8 1.8-1.8 1.8-0.9 0-2.3-0.5-3-1.2-0.7-0.7-1.2-2.1-1.2-3 0-1 0.8-1.8 1.7-1.8zm-48 48c1 0 2.4 0.5 3.1 1.2 0.7 0.7 1.2 2.1 1.2 3 0 1.3-0.8 1.8-3 1.8-2.7 0-3-0.3-3-3 0-2.2 0.5-3 1.7-3z"/>
		<path id="Path 35" class="s1" d="m259 86h12v6h-12v12h-6v-12h3c2.7 0 3-0.3 3-3zm-48 48h12v6h-12v12h-6v-12h3c2.7 0 3-0.3 3-3zm-48 48h12v6h-12v12h-6v-12h3c2.7 0 3-0.3 3-3zm168 66h6v192h-6v-96z"/>
		<path id="Path 36" class="s2" d="m259 92h12v12h12v18h18v18h18v12h12v18h18v18h18v12h12v18h18v30h-66v192h-138v-192h-66v-30h18v-18h18v-12h12v-18h18v-18h18v-12h12v-18h18v-18h18v-6z"/>
		<path id="Path 37" class="s3" d="m283 104h6v18h-6v-9zm18 30h18v6h-18v-3zm30 18h6v18h-6v-9zm18 30h18v6h-18v-3zm30 18h6v18h-6v-9z"/>
		<path id="Path 38" class="s4" d="m235 104h6v12h-3c-2.7 0-3 0.3-3 6h-12v-6h12v-6zm54 12h12v3c0 2.7 0.3 3 6 3v12h-6v-12h-12v-3zm-102 36h6v12h-3c-2.7 0-3 0.3-3 6h-12v-6h12v-6zm150 12h12v3c0 2.7 0.3 3 6 3v12h-6v-12h-12v-3zm-198 36h6v12h-3c-2.7 0-3 0.3-3 6h-12v-6h12v-6zm246 12h12v3c0 2.7 0.3 3 6 3v30h-6v-30h-12v-3zm-198 36h6v192h-6v-96z"/>
		<path id="Path 39" class="s5" d="m256 86c2.7 0 3 0.3 3 3 0 2.7-0.3 3-3 3-2.7 0-3-0.3-3-3 0-2.7 0.3-3 3-3zm-48 48c2.7 0 3 0.3 3 3 0 2.7-0.3 3-3 3-2.7 0-3-0.3-3-3 0-2.7 0.3-3 3-3zm-48 48c2.7 0 3 0.3 3 3 0 2.7-0.3 3-3 3-2.7 0-3-0.3-3-3 0-2.7 0.3-3 3-3z"/>
	</g>
</svg>